<?xml version="1.0" standalone="no"?>
<!DOCTYPE svg PUBLIC "-//W3C//DTD SVG 20010904//EN"
 "http://www.w3.org/TR/2001/REC-SVG-20010904/DTD/svg10.dtd">
<svg version="1.0" xmlns="http://www.w3.org/2000/svg"
 width="520.000000pt" height="520.000000pt" viewBox="0 0 520.000000 520.000000"
 preserveAspectRatio="xMidYMid meet">
<metadata>
Created by potrace 1.11, written by Peter Selinger 2001-2013
</metadata>
<g transform="translate(0.000000,520.000000) scale(0.100000,-0.100000)"
fill="#000000" stroke="none">
<path d="M300 5186 c-104 -29 -205 -108 -249 -195 -54 -105 -51 26 -49 -2422
l3 -2264 32 -68 c54 -114 159 -198 283 -226 30 -7 788 -10 2290 -10 l2245 0
66 22 c79 27 163 87 204 147 16 23 39 72 52 109 l22 66 1 2251 c0 2446 3 2290
-52 2398 -26 51 -105 129 -156 155 -106 54 57 51 -2387 50 -1779 -1 -2270 -3
-2305 -13z"/>
</g>
</svg>
